<svg xmlns="http://www.w3.org/2000/svg" viewBox="0 0 343.46 283.46"><defs><style>.cls-1{fill:#959ca1;}.cls-2{fill:#07549c;}</style></defs><g id="Calque_1" data-name="Calque 1"><path class="cls-1" d="M191.66,107.93h-2.85a3.78,3.78,0,0,0-1.48-2.4,4.69,4.69,0,0,0-2.9-.87,4.94,4.94,0,0,0-4,1.72,8.82,8.82,0,0,0,0,9.66,4.81,4.81,0,0,0,3.94,1.76,4.6,4.6,0,0,0,4.48-2.86,5,5,0,0,0,.37-2h-4.73v-2.38h7.38v9.32H190l-.48-2.18a6.19,6.19,0,0,1-2.33,2,7,7,0,0,1-3.1.67,7.4,7.4,0,0,1-5.8-2.5,9.54,9.54,0,0,1-2.23-6.58,11.94,11.94,0,0,1,.55-3.73,8.2,8.2,0,0,1,1.69-2.9,7.69,7.69,0,0,1,6-2.47,8,8,0,0,1,5.06,1.51A6.21,6.21,0,0,1,191.66,107.93Z"/><path class="cls-1" d="M194.53,102.65h2.88V117.3h8.52v2.61h-11.4Z"/><path class="cls-1" d="M214.31,102.19a7.83,7.83,0,0,1,6.06,2.43,11.12,11.12,0,0,1,0,13.33,8.76,8.76,0,0,1-12.13,0,11.11,11.11,0,0,1,0-13.34A7.79,7.79,0,0,1,214.31,102.19Zm0,2.5a4.82,4.82,0,0,0-3.95,1.74,9,9,0,0,0,0,9.72,5.29,5.29,0,0,0,7.87,0,9,9,0,0,0,0-9.71A4.78,4.78,0,0,0,214.31,104.69Z"/><path class="cls-1" d="M224.68,102.65h7.47a6.35,6.35,0,0,1,4.06,1.09,4.51,4.51,0,0,1,.74,5.46,3.56,3.56,0,0,1-1.7,1.39,4,4,0,0,1,2.25,1.49,4.45,4.45,0,0,1,.78,2.72,4.64,4.64,0,0,1-1.62,3.73,6.54,6.54,0,0,1-4.41,1.38h-7.57Zm2.8,2.4v4.61h4.08a3.84,3.84,0,0,0,2.37-.58,2.22,2.22,0,0,0,.73-1.84,1.9,1.9,0,0,0-.75-1.63,3.73,3.73,0,0,0-2.24-.56Zm0,7v5.35H232a3.88,3.88,0,0,0,2.48-.67,2.46,2.46,0,0,0,.84-2,2.36,2.36,0,0,0-.84-2,4.35,4.35,0,0,0-2.64-.64Z"/><path class="cls-1" d="M244.65,102.65h3.24l6.35,17.26h-3.08l-1.55-4.47h-6.73l-1.51,4.47h-3Zm1.61,2.9L243.68,113h5.15Z"/><path class="cls-1" d="M255.42,102.65h2.88V117.3h8.52v2.61h-11.4Z"/><path class="cls-1" d="M189.11,130l-2.73,0a2.72,2.72,0,0,0-.29-1.29,3,3,0,0,0-.82-1,4.12,4.12,0,0,0-2.71-.84,3.77,3.77,0,0,0-2.31.66,2,2,0,0,0-.88,1.63,2,2,0,0,0,.78,1.62,9.77,9.77,0,0,0,3.3,1.27c2.53.64,4.19,1.33,5,2.09a4.2,4.2,0,0,1,1.18,3.15,4.8,4.8,0,0,1-1.83,3.91,8.76,8.76,0,0,1-9.88-.05,5.36,5.36,0,0,1-1.4-1.88,6.32,6.32,0,0,1-.51-2.58h2.79a3.32,3.32,0,0,0,.31,1.48,3.57,3.57,0,0,0,.94,1.13,4.84,4.84,0,0,0,3.11.92,3.86,3.86,0,0,0,2.42-.71,2.13,2.13,0,0,0,.95-1.76,1.29,1.29,0,0,0-.07-.43,2.74,2.74,0,0,0-.2-.5,3,3,0,0,0-.67-.9,7.61,7.61,0,0,0-3-1.2l-.76-.19a9.11,9.11,0,0,1-4.08-1.93,4.28,4.28,0,0,1-1.21-3.22,4.23,4.23,0,0,1,1.76-3.5,7.38,7.38,0,0,1,4.66-1.36,6.57,6.57,0,0,1,4.52,1.49A5,5,0,0,1,189.11,130Z"/><path class="cls-1" d="M191.66,125h2.89v6.8h8.15V125h2.89v17.27H202.7v-7.9h-8.15v7.9h-2.89Z"/><path class="cls-1" d="M213.09,125h3.24l6.35,17.27H219.6l-1.55-4.47h-6.72l-1.52,4.47h-3Zm1.61,2.91-2.57,7.49h5.14Z"/><path class="cls-1" d="M223.86,125h6.58c.53,0,1,0,1.38,0a6.09,6.09,0,0,1,1,.12,4,4,0,0,1,1.38.48,4.22,4.22,0,0,1,1.8,1.82,6.18,6.18,0,0,1,.61,2.85,5.89,5.89,0,0,1-.5,2.47,4.65,4.65,0,0,1-1.47,1.79,4.51,4.51,0,0,1-1.52.68,11.09,11.09,0,0,1-2.44.22h-3.91v6.8h-2.89Zm2.89,2.5V133h3.72a3.88,3.88,0,0,0,2.48-.64,2.59,2.59,0,0,0,.75-2.07,2.66,2.66,0,0,0-.73-2.07,3.45,3.45,0,0,0-2.33-.67Z"/><path class="cls-1" d="M238.25,125h12.39v2.54h-9.56v4.5h8.82v2.42h-8.82v5.22H251v2.59H238.25Z"/><path class="cls-1" d="M252.79,125H261l.15,0a4.86,4.86,0,0,1,3.58,1.27,5.36,5.36,0,0,1,.67,6,3.74,3.74,0,0,1-1.84,1.52,2.54,2.54,0,0,1,1.51,1.08,3.52,3.52,0,0,1,.4,1,5.75,5.75,0,0,1,.15,1.39l.15,2.47a4,4,0,0,0,.18,1.32,1.23,1.23,0,0,0,.54.68v.5h-3.22a3.87,3.87,0,0,1-.29-.8c0-.2-.07-.42-.1-.65a6.5,6.5,0,0,1,0-.82l-.09-2.07a4.19,4.19,0,0,0-.2-1.36,2.16,2.16,0,0,0-.51-.86,3.09,3.09,0,0,0-2-.55h-4.36v7.11h-2.83Zm2.83,2.43v5.3h4.11a4.18,4.18,0,0,0,2.58-.63,2.45,2.45,0,0,0,.8-2.05,2.4,2.4,0,0,0-.77-2,4,4,0,0,0-2.54-.63Z"/><path class="cls-1" d="M281.61,130l-2.73,0a2.85,2.85,0,0,0-.29-1.29,3.06,3.06,0,0,0-.83-1,4.09,4.09,0,0,0-2.71-.84,3.76,3.76,0,0,0-2.3.66,2,2,0,0,0-.11,3.25,9.76,9.76,0,0,0,3.31,1.27c2.53.64,4.19,1.33,5,2.09a4.19,4.19,0,0,1,1.17,3.15,4.82,4.82,0,0,1-1.82,3.91,7.45,7.45,0,0,1-4.88,1.5,7.53,7.53,0,0,1-5-1.55,5.45,5.45,0,0,1-1.39-1.88,6.16,6.16,0,0,1-.52-2.58h2.79a3.32,3.32,0,0,0,.32,1.48,3.44,3.44,0,0,0,.94,1.13,4.82,4.82,0,0,0,3.11.92,3.88,3.88,0,0,0,2.42-.71,2.13,2.13,0,0,0,.95-1.76,1.61,1.61,0,0,0-.07-.43,2.74,2.74,0,0,0-.2-.5,3,3,0,0,0-.67-.9,7.68,7.68,0,0,0-3-1.2l-.76-.19a9.11,9.11,0,0,1-4.08-1.93,4.28,4.28,0,0,1-1.21-3.22,4.2,4.2,0,0,1,1.76-3.5,7.37,7.37,0,0,1,4.65-1.36,6.58,6.58,0,0,1,4.53,1.49A5,5,0,0,1,281.61,130Z"/><path class="cls-1" d="M191.36,152.78h-2.84a3.52,3.52,0,0,0-1.38-2.41,4.82,4.82,0,0,0-3-.88,4.67,4.67,0,0,0-3.84,1.68,5.71,5.71,0,0,0-1,2,9.76,9.76,0,0,0-.35,2.72,7.7,7.7,0,0,0,1.38,4.85,4.9,4.9,0,0,0,6.9.66,4.33,4.33,0,0,0,1.38-3h2.82a6.06,6.06,0,0,1-.57,2.63,6.88,6.88,0,0,1-1.63,2.18,7.56,7.56,0,0,1-5.25,1.86,7.34,7.34,0,0,1-5.82-2.43,11.47,11.47,0,0,1,0-13.37,8.75,8.75,0,0,1,11-.85A6,6,0,0,1,191.36,152.78Z"/><path class="cls-1" d="M200.94,146.92a7.81,7.81,0,0,1,6.06,2.44,11.1,11.1,0,0,1,0,13.33,8.77,8.77,0,0,1-12.13,0,11.11,11.11,0,0,1,0-13.34A7.8,7.8,0,0,1,200.94,146.92Zm0,2.5a4.79,4.79,0,0,0-3.94,1.75,9,9,0,0,0,0,9.71,5.3,5.3,0,0,0,7.87,0,9,9,0,0,0,0-9.71A4.78,4.78,0,0,0,200.94,149.42Z"/><path class="cls-1" d="M211.32,147.38h4.17l4.15,13.82,4.22-13.82H228v17.27H225.3V150.39L221,164.65H218.2L214,150.37v14.28h-2.66Z"/><path class="cls-1" d="M230.9,147.38h4.18l4.15,13.82,4.22-13.82h4.17v17.27h-2.73V150.39l-4.28,14.26h-2.82l-4.22-14.28v14.28H230.9Z"/><path class="cls-1" d="M250.38,147.38h2.89v10.74a4.86,4.86,0,0,0,1,3.31,3.81,3.81,0,0,0,3,1.06,3.88,3.88,0,0,0,3-1.07,4.85,4.85,0,0,0,1-3.3V147.38h2.89v10.91a6.2,6.2,0,0,1-6.85,6.84,6.09,6.09,0,0,1-6.83-6.84Z"/><path class="cls-1" d="M266.8,147.38h3.05l8,12.94V147.38h2.78v17.27h-3l-8.1-12.92v12.92H266.8Z"/><path class="cls-1" d="M283.54,147.38h2.89v17.27h-2.89Z"/><path class="cls-1" d="M287.71,147.38h13.5v2.54h-5.3v14.73h-2.86V149.92h-5.34Z"/><path class="cls-1" d="M301.45,147.38H305l4.22,7.85,4.09-7.85h3.31l-5.93,10.45v6.82h-2.89V158Z"/><path class="cls-2" d="M176.77,169.75h2.85v7.8l7.66-7.8H191l-7,6.94L191.33,187h-3.5l-5.89-8.33L179.62,181V187h-2.85Z"/><path class="cls-2" d="M196.74,169.75H200L206.32,187h-3.07l-1.55-4.47H195L193.46,187h-3Zm1.6,2.9-2.57,7.49h5.15Z"/><path class="cls-2" d="M206,169.75h13.5v2.53h-5.3V187h-2.86V172.28H206Z"/><path class="cls-2" d="M221.11,169.75H224v6.79h8.16v-6.79H235V187h-2.88v-7.91H224V187h-2.88Z"/><path class="cls-2" d="M238.21,169.75h4.18l4.15,13.82,4.22-13.82h4.17V187H252.2V172.75L247.91,187H245.1l-4.22-14.28V187h-2.67Z"/><path class="cls-2" d="M262.55,169.75h3.24L272.14,187h-3.08l-1.55-4.47h-6.72L259.27,187h-3Zm1.61,2.9-2.57,7.49h5.14Z"/><path class="cls-2" d="M273.44,169.75h3.05l8.05,12.93V169.75h2.78V187h-3L276.2,174.1V187h-2.76Z"/><path class="cls-2" d="M290.5,169.75h6.67a7.21,7.21,0,0,1,5.71,2.16c1.27,1.43,1.91,3.58,1.91,6.42a9.11,9.11,0,0,1-2.09,6.44,7.77,7.77,0,0,1-6,2.25H290.5Zm2.83,2.45v12.27h3.53a4.53,4.53,0,0,0,3.78-1.53,7.65,7.65,0,0,0,1.21-4.76,7,7,0,0,0-1.22-4.45,4.29,4.29,0,0,0-3.57-1.53Z"/><path class="cls-2" d="M307.11,169.75H310v10.74a4.82,4.82,0,0,0,1,3.3,3.82,3.82,0,0,0,3,1.07,3.88,3.88,0,0,0,3-1.07,4.85,4.85,0,0,0,1-3.3V169.75h2.89v10.9a6.21,6.21,0,0,1-6.85,6.85,6.09,6.09,0,0,1-6.83-6.85Z"/><path class="cls-2" d="M232,204a96,96,0,0,1-12.11,12.09l15.53,18.63a120.8,120.8,0,0,0,14.8-14.69l.37-.44c1.32-1.58,2.6-3.18,3.83-4.82L241.48,205c-1.27,1.27-2.58,2.49-3.91,3.68Z"/><path class="cls-2" d="M192.89,194.2a61.9,61.9,0,0,1-6.56,3.81l1.66,3.3c-.86.44-1.74.85-2.62,1.25l22.27,49.53a120.2,120.2,0,0,0,24-14.35l-33.08-43.07q-1.78,1.37-3.65,2.61Z"/><path class="cls-2" d="M103.66,107.89l-48.1-30A121,121,0,0,0,45.37,98.22q26.87,9.68,53.5,20a65,65,0,0,1,4.79-10.3"/><path class="cls-2" d="M181.67,57.59a87.57,87.57,0,0,1,17,6.75l6.39-12.23a102.82,102.82,0,0,1,9.54,5.67l10.84-16.15a119.27,119.27,0,0,0-11.36-6.76l-2.34-1.19a123,123,0,0,0-15.87-6.52q-2.58-.86-5.19-1.59-5-1.39-10.15-2.38l-5.25,27.6q3.93.75,7.8,1.83Z"/><path class="cls-2" d="M78.45,81.5A97.58,97.58,0,0,1,92.11,70.09l4,4.35A90.68,90.68,0,0,1,104.8,66l-16.11-23a118.23,118.23,0,0,0-12,9.61l-.36.33c-2.44,2.24-4.8,4.58-7,7q-4,4.3-7.51,9c-1.24,1.63-2.43,3.3-3.59,5l11.2,7.62q2.07-1.89,4.21-3.66Z"/><path class="cls-2" d="M121.43,64.57c1.53-.72,3.08-1.39,4.65-2l-8.23-20.45Q120.63,41,123.46,40l1.42,4.18.59,1.73,1.35,4q4.53-1.53,9.2-2.63L135.86,43a100,100,0,0,1,11.4-1.89l-2.07-19.34a120.36,120.36,0,0,0-25.43,5.55l-.55.19c-2.13.71-4.22,1.5-6.3,2.33l-.73.3a121.06,121.06,0,0,0-19.5,10.13l18.07,28.16,1,1.53L114,73.48a80.88,80.88,0,0,1,8.63-4.82Z"/><path class="cls-2" d="M229,76.36q1.47,1.59,2.86,3.24l-2.11,2.55c2,2.35,3.81,4.81,5.53,7.34l2.69-1.82c.71,1,1.4,2.11,2.08,3.19l20.6-12.8a119.72,119.72,0,0,0-12.55-16.75l-1.28-1.41a121.14,121.14,0,0,0-17.43-15.53l-7.8,10.68a107.19,107.19,0,0,1,15.52,13.82Z"/><path class="cls-2" d="M69.51,137.84a88.54,88.54,0,0,1,1.87-14.41l-4.06-.87a92.52,92.52,0,0,1,3-10.72l-26.58-9.13A121,121,0,0,0,37.18,144l28.09-.48c0-1.95,0-3.91.09-5.86Z"/><path class="cls-2" d="M107.64,237q-2.34-1.23-4.6-2.58l11.25-19a87.64,87.64,0,0,1-9.26-6.35L83.22,236.84q4.64,3.65,9.61,6.82c1.14.74,2.3,1.44,3.46,2.14,1.7,1,3.42,2,5.16,2.9,1,.5,1.94,1,2.92,1.48a121.07,121.07,0,0,0,17.22,6.95l5.87-18.55a102.52,102.52,0,0,1-16.9-7.08Z"/><path class="cls-2" d="M148.79,204.39l-1.86,13.93c-1.49-.22-3-.48-4.44-.79l-3.92,19q-3-.63-6-1.44l-6.41,23.4a119.83,119.83,0,0,0,15.47,3.16c1.07.15,2.14.28,3.21.4q4.92.54,9.89.68.09-28.86.86-57.7a62.42,62.42,0,0,1-6.82-.64"/><path class="cls-2" d="M186,235.45l-1.14-3.78c-2.88.09-5.72,0-8.53-.15l-1.18-5.76c-1.24.26-2.49.48-3.74.68l-.82-5.13c-2.64.42-5.31.71-8,.87l.3,5.18c-1.27.08-2.53.12-3.79.13l.44,35.27a120.26,120.26,0,0,0,21.33-2.17l1.37-.27a122.53,122.53,0,0,0,20.55-6.17L194.35,233c-2.75.95-5.54,1.79-8.35,2.49"/><path class="cls-2" d="M97.66,161.46l-5.1,1.23a61.77,61.77,0,0,1,1.35-8.79q-10.25,1.35-20.55,2.35c-.46-2.72-.79-5.47-1-8.23q-17.49.63-35,.76a119.7,119.7,0,0,0,3.52,22.83c.65,2.56,1.39,5.1,2.2,7.61,1.11,3.39,2.35,6.72,3.75,10q25.58-13.17,52-24.52c-.41-1.07-.8-2.15-1.15-3.24"/><path class="cls-2" d="M83.28,217.92c1.74-1.48,1.87-4.69,1.51-8a40.47,40.47,0,0,0-2.08-9c1.05-1.57,2.14-3.12,3.25-4.64l-.07-.09q-2.69.87-5.4,1.67a35.7,35.7,0,0,0-7.93-4.95c-3.09-1.38-6.34-2.22-8.76-1-.18.09-.36.2-.53.3q-1.14-2.24-2.16-4.52l-12.33,5.82a120.45,120.45,0,0,0,30.67,40.16l4.65-5.43.06,0,4.4-5.34q-2.73-2.46-5.28-5.09"/><path class="cls-2" d="M163.44,54q3.83-.61,7.77-.89l4.58-30.7A120.5,120.5,0,0,0,150,21.33l.51,7.67,1.85,27.52.82,12.27A72.18,72.18,0,0,1,161,66.43q1.09-6.24,2.48-12.46"/></g></svg>