<svg xmlns="http://www.w3.org/2000/svg" viewBox="0 0 343.46 294.74"><defs><style>.cls-1{fill:#959ca1;}.cls-2{fill:#fff;}</style></defs><g id="Calque_1" data-name="Calque 1"><path class="cls-1" d="M191.66,113.13h-2.85a3.78,3.78,0,0,0-1.48-2.4,4.69,4.69,0,0,0-2.9-.87,4.94,4.94,0,0,0-4,1.72,8.82,8.82,0,0,0,0,9.66,4.81,4.81,0,0,0,3.94,1.76,4.6,4.6,0,0,0,4.48-2.86,5,5,0,0,0,.37-2h-4.73v-2.38h7.38v9.33H190l-.48-2.19a6.19,6.19,0,0,1-2.33,2,7,7,0,0,1-3.1.67,7.4,7.4,0,0,1-5.8-2.5,9.54,9.54,0,0,1-2.23-6.58,11.94,11.94,0,0,1,.55-3.73,8.2,8.2,0,0,1,1.69-2.9,7.72,7.72,0,0,1,6-2.47,8,8,0,0,1,5.06,1.51A6.21,6.21,0,0,1,191.66,113.13Z"/><path class="cls-1" d="M194.53,107.85h2.88V122.5h8.52v2.62h-11.4Z"/><path class="cls-1" d="M214.31,107.39a7.83,7.83,0,0,1,6.06,2.43,11.12,11.12,0,0,1,0,13.33,8.76,8.76,0,0,1-12.13,0,11.11,11.11,0,0,1,0-13.34A7.79,7.79,0,0,1,214.31,107.39Zm0,2.5a4.82,4.82,0,0,0-3.95,1.74,9,9,0,0,0,0,9.72,5.29,5.29,0,0,0,7.87,0,9,9,0,0,0,0-9.71A4.78,4.78,0,0,0,214.31,109.89Z"/><path class="cls-1" d="M224.68,107.85h7.47a6.35,6.35,0,0,1,4.06,1.09,4,4,0,0,1,1.34,3.28,4,4,0,0,1-.6,2.18,3.56,3.56,0,0,1-1.7,1.39,4.05,4.05,0,0,1,2.25,1.49,4.45,4.45,0,0,1,.78,2.72,4.64,4.64,0,0,1-1.62,3.73,6.55,6.55,0,0,1-4.41,1.39h-7.57Zm2.8,2.4v4.61h4.08a3.84,3.84,0,0,0,2.37-.58,2.2,2.2,0,0,0,.73-1.84,1.9,1.9,0,0,0-.75-1.63,3.73,3.73,0,0,0-2.24-.56Zm0,7v5.35H232a3.88,3.88,0,0,0,2.48-.67,2.44,2.44,0,0,0,.84-2.05,2.36,2.36,0,0,0-.84-2,4.35,4.35,0,0,0-2.64-.64Z"/><path class="cls-1" d="M244.65,107.85h3.24l6.35,17.27h-3.08l-1.55-4.47h-6.73l-1.51,4.46h-3Zm1.61,2.9-2.58,7.49h5.15Z"/><path class="cls-1" d="M255.42,107.85h2.88V122.5h8.52v2.62h-11.4Z"/><path class="cls-1" d="M189.11,135.24h-2.73a2.72,2.72,0,0,0-.29-1.29,3.13,3.13,0,0,0-.82-1,4.12,4.12,0,0,0-2.71-.83,3.76,3.76,0,0,0-2.31.65,2,2,0,0,0-.1,3.25,9.77,9.77,0,0,0,3.3,1.27c2.53.64,4.19,1.33,5,2.09a4.2,4.2,0,0,1,1.18,3.15,4.8,4.8,0,0,1-1.83,3.91,8.76,8.76,0,0,1-9.88-.05,5.41,5.41,0,0,1-1.4-1.87,6.4,6.4,0,0,1-.51-2.59h2.79a3.32,3.32,0,0,0,.31,1.48,3.57,3.57,0,0,0,.94,1.13,4.84,4.84,0,0,0,3.11.93,3.93,3.93,0,0,0,2.42-.71,2.16,2.16,0,0,0,.95-1.77,1.29,1.29,0,0,0-.07-.43,2.74,2.74,0,0,0-.2-.5,3,3,0,0,0-.67-.9,7.77,7.77,0,0,0-3-1.2l-.76-.18a9.11,9.11,0,0,1-4.08-1.94,4.59,4.59,0,0,1,.55-6.72,7.38,7.38,0,0,1,4.66-1.36,6.57,6.57,0,0,1,4.52,1.49A5,5,0,0,1,189.11,135.24Z"/><path class="cls-1" d="M191.66,130.21h2.89V137h8.15v-6.8h2.89v17.27H202.7v-7.9h-8.15v7.9h-2.89Z"/><path class="cls-1" d="M213.09,130.21h3.24l6.35,17.27H219.6L218.05,143h-6.72l-1.52,4.47h-3Zm1.61,2.91-2.57,7.49h5.14Z"/><path class="cls-1" d="M223.86,130.21h6.58c.53,0,1,0,1.38,0a6.09,6.09,0,0,1,1,.12,4,4,0,0,1,1.38.48,4.19,4.19,0,0,1,1.8,1.83,6.11,6.11,0,0,1,.61,2.84,5.89,5.89,0,0,1-.5,2.47,4.65,4.65,0,0,1-1.47,1.79,4.51,4.51,0,0,1-1.52.68,10.51,10.51,0,0,1-2.44.22h-3.91v6.8h-2.89Zm2.89,2.5v5.45h3.72a3.88,3.88,0,0,0,2.48-.64,2.59,2.59,0,0,0,.75-2.07,2.68,2.68,0,0,0-.73-2.07,3.45,3.45,0,0,0-2.33-.67Z"/><path class="cls-1" d="M238.25,130.21h12.39v2.54h-9.56v4.5h8.82v2.42h-8.82v5.22H251v2.59H238.25Z"/><path class="cls-1" d="M252.79,130.21H261l.15,0a4.86,4.86,0,0,1,3.58,1.27,5.36,5.36,0,0,1,.67,6,3.74,3.74,0,0,1-1.84,1.52,2.58,2.58,0,0,1,1.51,1.08,3.52,3.52,0,0,1,.4,1,5.8,5.8,0,0,1,.15,1.39l.15,2.47a4,4,0,0,0,.18,1.32,1.23,1.23,0,0,0,.54.68v.5h-3.22a4,4,0,0,1-.29-.79c0-.21-.07-.43-.1-.66a6.5,6.5,0,0,1,0-.82l-.09-2.07a4.19,4.19,0,0,0-.2-1.36,2,2,0,0,0-.51-.85,3,3,0,0,0-2-.56h-4.36v7.11h-2.83Zm2.83,2.43V138h4.11a4.17,4.17,0,0,0,2.58-.64,2.45,2.45,0,0,0,.8-2.05,2.4,2.4,0,0,0-.77-2,4,4,0,0,0-2.54-.63Z"/><path class="cls-1" d="M281.61,135.24h-2.73a2.85,2.85,0,0,0-.29-1.29,3.16,3.16,0,0,0-.83-1,4.08,4.08,0,0,0-2.71-.83,3.75,3.75,0,0,0-2.3.65,2,2,0,0,0-.11,3.25,9.76,9.76,0,0,0,3.31,1.27c2.53.64,4.19,1.33,5,2.09a4.19,4.19,0,0,1,1.17,3.15,4.82,4.82,0,0,1-1.82,3.91,7.45,7.45,0,0,1-4.88,1.5,7.53,7.53,0,0,1-5-1.55,5.51,5.51,0,0,1-1.39-1.87,6.24,6.24,0,0,1-.52-2.59h2.79a3.32,3.32,0,0,0,.32,1.48,3.44,3.44,0,0,0,.94,1.13,4.82,4.82,0,0,0,3.11.93,4,4,0,0,0,2.42-.71A2.16,2.16,0,0,0,279,143a1.61,1.61,0,0,0-.07-.43,2.74,2.74,0,0,0-.2-.5,3,3,0,0,0-.67-.9,7.84,7.84,0,0,0-3-1.2l-.76-.18a9.11,9.11,0,0,1-4.08-1.94,4.27,4.27,0,0,1-1.21-3.21,4.22,4.22,0,0,1,1.76-3.51,7.37,7.37,0,0,1,4.65-1.36,6.58,6.58,0,0,1,4.53,1.49A5,5,0,0,1,281.61,135.24Z"/><path class="cls-1" d="M191.36,158h-2.84a3.52,3.52,0,0,0-1.38-2.41,4.82,4.82,0,0,0-3-.88,4.67,4.67,0,0,0-3.84,1.68,5.71,5.71,0,0,0-1,2,9.76,9.76,0,0,0-.35,2.72,7.7,7.7,0,0,0,1.38,4.85,4.9,4.9,0,0,0,6.9.66,4.33,4.33,0,0,0,1.38-3h2.82a6.06,6.06,0,0,1-.57,2.63,6.88,6.88,0,0,1-1.63,2.18,7.56,7.56,0,0,1-5.25,1.86,7.34,7.34,0,0,1-5.82-2.43,11.47,11.47,0,0,1,0-13.37,8.79,8.79,0,0,1,11-.85A6,6,0,0,1,191.36,158Z"/><path class="cls-1" d="M200.94,152.13a7.8,7.8,0,0,1,6.06,2.43,11.1,11.1,0,0,1,0,13.33,8.77,8.77,0,0,1-12.13,0,11.1,11.1,0,0,1,0-13.33A7.77,7.77,0,0,1,200.94,152.13Zm0,2.49a4.79,4.79,0,0,0-3.94,1.75,9,9,0,0,0,0,9.72,5.31,5.31,0,0,0,7.87,0,9,9,0,0,0,0-9.71A4.78,4.78,0,0,0,200.94,154.62Z"/><path class="cls-1" d="M211.32,152.58h4.17l4.15,13.82,4.22-13.82H228v17.27H225.3V155.59L221,169.85H218.2L214,155.57v14.28h-2.66Z"/><path class="cls-1" d="M230.9,152.58h4.18l4.15,13.82,4.22-13.82h4.17v17.27h-2.73V155.59l-4.28,14.26h-2.82l-4.22-14.28v14.28H230.9Z"/><path class="cls-1" d="M250.38,152.58h2.89v10.74a4.86,4.86,0,0,0,1,3.31,4.73,4.73,0,0,0,6,0,4.83,4.83,0,0,0,1-3.3V152.58h2.89v10.91a6.2,6.2,0,0,1-6.85,6.84,6.09,6.09,0,0,1-6.83-6.84Z"/><path class="cls-1" d="M266.8,152.58h3.05l8,12.94V152.58h2.78v17.27h-3l-8.1-12.91v12.91H266.8Z"/><path class="cls-1" d="M283.54,152.58h2.89v17.27h-2.89Z"/><path class="cls-1" d="M287.71,152.58h13.5v2.54h-5.3v14.73h-2.86V155.12h-5.34Z"/><path class="cls-1" d="M301.45,152.58H305l4.22,7.85,4.09-7.85h3.31L310.71,163v6.82h-2.89v-6.69Z"/><path class="cls-2" d="M176.77,175h2.85v7.8l7.66-7.8H191l-7,6.94,7.35,10.33h-3.5l-5.89-8.33-2.32,2.27v6.07h-2.85Z"/><path class="cls-2" d="M196.74,175H200l6.34,17.27h-3.07l-1.55-4.47H195l-1.51,4.47h-3Zm1.6,2.9-2.57,7.49h5.15Z"/><path class="cls-2" d="M206,175h13.5v2.53h-5.3v14.74h-2.86V177.48H206Z"/><path class="cls-2" d="M221.11,175H224v6.79h8.16V175H235v17.27h-2.88v-7.91H224v7.91h-2.88Z"/><path class="cls-2" d="M238.21,175h4.18l4.15,13.82L250.76,175h4.17v17.27H252.2V178l-4.29,14.27H245.1l-4.22-14.28v14.28h-2.67Z"/><path class="cls-2" d="M262.55,175h3.24l6.35,17.27h-3.08l-1.55-4.47h-6.72l-1.52,4.47h-3Zm1.61,2.9-2.57,7.49h5.14Z"/><path class="cls-2" d="M273.44,175h3.05l8.05,12.93V175h2.78v17.27h-3L276.2,179.3v12.92h-2.76Z"/><path class="cls-2" d="M290.5,175h6.67a7.21,7.21,0,0,1,5.71,2.16q1.9,2.16,1.91,6.42A9.11,9.11,0,0,1,302.7,190a7.77,7.77,0,0,1-6,2.25H290.5Zm2.83,2.45v12.27h3.53a4.53,4.53,0,0,0,3.78-1.53,7.65,7.65,0,0,0,1.21-4.76,7,7,0,0,0-1.22-4.45,4.29,4.29,0,0,0-3.57-1.53Z"/><path class="cls-2" d="M307.11,175H310v10.74a4.82,4.82,0,0,0,1,3.3,3.82,3.82,0,0,0,3,1.07,3.88,3.88,0,0,0,3-1.07,4.85,4.85,0,0,0,1-3.3V175h2.89v10.9a6.21,6.21,0,0,1-6.85,6.85,6.09,6.09,0,0,1-6.83-6.85Z"/><path class="cls-2" d="M232,209.22a96,96,0,0,1-12.11,12.09l15.53,18.63a120.1,120.1,0,0,0,14.8-14.69l.37-.44q2-2.35,3.83-4.82l-12.94-9.76c-1.27,1.26-2.58,2.48-3.91,3.67Z"/><path class="cls-2" d="M192.89,199.4a61.9,61.9,0,0,1-6.56,3.81l1.66,3.3c-.86.44-1.74.85-2.62,1.25l22.27,49.53a120.2,120.2,0,0,0,24-14.35l-33.08-43.07q-1.78,1.37-3.65,2.61Z"/><path class="cls-2" d="M103.66,113.09l-48.1-30a121,121,0,0,0-10.19,20.36q26.87,9.67,53.5,20a65,65,0,0,1,4.79-10.3"/><path class="cls-2" d="M181.67,62.79a87.57,87.57,0,0,1,17,6.75l6.39-12.23A102.82,102.82,0,0,1,214.59,63l10.84-16.15a119.27,119.27,0,0,0-11.36-6.76l-2.34-1.19a123,123,0,0,0-15.87-6.52q-2.58-.86-5.19-1.58-5-1.41-10.15-2.39L175.27,56q3.93.75,7.8,1.83Z"/><path class="cls-2" d="M78.45,86.7A97.58,97.58,0,0,1,92.11,75.29l4,4.35a90.68,90.68,0,0,1,8.7-8.49l-16.11-23a118.23,118.23,0,0,0-12,9.61l-.36.33c-2.44,2.25-4.8,4.58-7,7q-4,4.3-7.51,9c-1.24,1.63-2.43,3.3-3.59,5l11.2,7.62q2.07-1.89,4.21-3.66Z"/><path class="cls-2" d="M121.43,69.77c1.53-.72,3.08-1.39,4.65-2l-8.23-20.45q2.78-1.12,5.61-2.09l1.42,4.18.59,1.73,1.35,4q4.53-1.55,9.2-2.64l-.16-4.27a100,100,0,0,1,11.4-1.88L145.19,27a120.36,120.36,0,0,0-25.43,5.55l-.55.19c-2.13.71-4.22,1.5-6.3,2.33l-.73.3a121.87,121.87,0,0,0-19.5,10.13l18.07,28.16,1,1.53L114,78.68a80.88,80.88,0,0,1,8.63-4.82Z"/><path class="cls-2" d="M229,81.56q1.47,1.59,2.86,3.24l-2.11,2.55c2,2.35,3.81,4.81,5.53,7.34l2.69-1.82c.71,1,1.4,2.12,2.08,3.19l20.6-12.8a120.31,120.31,0,0,0-12.55-16.75l-1.28-1.41a121.74,121.74,0,0,0-17.43-15.53l-7.8,10.68a107.19,107.19,0,0,1,15.52,13.82Z"/><path class="cls-2" d="M69.51,143a88.54,88.54,0,0,1,1.87-14.41l-4.06-.87a92.52,92.52,0,0,1,3-10.72l-26.58-9.13a121,121,0,0,0-6.54,41.27l28.09-.48q0-2.92.09-5.86Z"/><path class="cls-2" d="M107.64,242.21q-2.34-1.23-4.6-2.58l11.25-19a87.64,87.64,0,0,1-9.26-6.35L83.22,242q4.64,3.65,9.61,6.82c1.14.74,2.3,1.44,3.46,2.14,1.7,1,3.42,2,5.16,2.9,1,.5,1.94,1,2.92,1.48a119.91,119.91,0,0,0,17.22,6.95l5.87-18.55a102.52,102.52,0,0,1-16.9-7.08Z"/><path class="cls-2" d="M148.79,209.59l-1.86,13.93q-2.24-.33-4.44-.78l-3.92,19q-3-.63-6-1.44l-6.41,23.4a119.83,119.83,0,0,0,15.47,3.16c1.07.15,2.14.28,3.21.4q4.92.54,9.89.68.09-28.86.86-57.7a62.42,62.42,0,0,1-6.82-.64"/><path class="cls-2" d="M186,240.65l-1.14-3.78c-2.88.09-5.72,0-8.53-.15L175.15,231c-1.24.25-2.49.47-3.74.67l-.82-5.13c-2.64.42-5.31.71-8,.87l.3,5.18c-1.27.08-2.53.12-3.79.13l.44,35.28a120.27,120.27,0,0,0,21.33-2.18l1.37-.27a122.53,122.53,0,0,0,20.55-6.17l-8.45-21.19c-2.75,1-5.54,1.79-8.35,2.49"/><path class="cls-2" d="M97.66,166.66l-5.1,1.23a61.77,61.77,0,0,1,1.35-8.79q-10.25,1.35-20.55,2.36-.69-4.1-1-8.24-17.49.63-35,.76a119.7,119.7,0,0,0,3.52,22.83c.65,2.57,1.39,5.1,2.2,7.61,1.11,3.39,2.35,6.73,3.75,10q25.58-13.15,52-24.52c-.41-1.07-.8-2.15-1.15-3.24"/><path class="cls-2" d="M83.28,223.12c1.74-1.48,1.87-4.68,1.51-8a40.47,40.47,0,0,0-2.08-9c1.05-1.57,2.14-3.12,3.25-4.64l-.07-.09c-1.79.58-3.59,1.15-5.4,1.67a35.7,35.7,0,0,0-7.93-5c-3.09-1.38-6.34-2.22-8.76-.95l-.53.3q-1.14-2.23-2.16-4.52l-12.33,5.82a120.45,120.45,0,0,0,30.67,40.16l4.65-5.43.06,0,4.4-5.34c-1.82-1.64-3.58-3.33-5.28-5.09"/><path class="cls-2" d="M163.44,59.17c2.55-.41,5.14-.7,7.77-.89l4.58-30.7a120.5,120.5,0,0,0-25.82-1l.51,7.67,1.85,27.52L153.15,74A68,68,0,0,1,161,71.64q1.09-6.26,2.48-12.47"/></g></svg>